<svg width="1024" height="1024" viewBox="0 0 96 96" fill="none" xmlns="http://www.w3.org/2000/svg">
<rect width="96" height="96" fill="white"/>
<path d="M32.152 75.6H17.752V22H32.152V75.6Z" fill="#2E2B28"/>
<path d="M71.0946 63.983C76.9481 62.4146 80.4412 56.3643 78.8728 50.5108C77.91 46.9176 75.2644 44.2308 72.0036 43.0339C74.2292 40.367 75.1769 36.7174 74.2141 33.1242C73.4543 30.3091 71.6099 27.9099 69.0847 26.452C66.5596 24.9942 63.5596 24.5964 60.7419 25.346C57.1486 26.3088 54.4618 28.9543 53.265 32.2152C50.5981 29.9896 46.9484 29.0419 43.3552 30.0047C37.5017 31.5732 34.0086 37.6234 35.577 43.4769C36.5398 47.0702 39.1854 49.757 42.4463 50.9538C40.2207 53.6207 39.273 57.2703 40.2358 60.8636C41.8042 66.7171 47.8545 70.2102 53.708 68.6418C57.3012 67.679 59.988 65.0334 61.1848 61.7725C63.8517 63.9981 67.5014 64.9458 71.0946 63.983ZM49.4975 49.0644C48.3535 44.795 50.885 40.4104 55.1544 39.2665C59.4238 38.1225 63.8083 40.6539 64.9523 44.9233C66.0963 49.1927 63.5649 53.5773 59.2955 54.7213C55.0261 55.8653 50.6415 53.3338 49.4975 49.0644Z" fill="#548A5C"/>
</svg>
