<svg width="24" height="24" viewBox="0 0 24 24" fill="none" xmlns="http://www.w3.org/2000/svg">
<path d="M21 10.9346L20.9902 10.7051C20.9456 10.1721 20.7471 9.66159 20.416 9.2373C20.0849 8.81318 19.6379 8.49602 19.1318 8.32324L18.9111 8.25781C18.3826 8.12555 17.9024 7.84635 17.5264 7.45215C17.1972 7.10707 16.96 6.68629 16.834 6.22852L16.7861 6.03027L16.3418 3.80371C16.2965 3.57712 16.1738 3.3731 15.9951 3.22656C15.861 3.11668 15.7011 3.04403 15.5322 3.01465L15.3604 3H8.63965C8.40838 2.99991 8.18375 3.07997 8.00488 3.22656C7.82621 3.3731 7.70354 3.57712 7.6582 3.80371L7.21387 6.03027C7.10669 6.56452 6.84974 7.05788 6.47363 7.45215C6.14443 7.79724 5.73554 8.0547 5.28418 8.20215L5.08887 8.25781C4.49228 8.40736 3.96243 8.75248 3.58398 9.2373C3.2057 9.7221 3.0002 10.3196 3 10.9346V18C3 18.7956 3.3163 19.5585 3.87891 20.1211C4.44152 20.6837 5.20435 21 6 21H18C18.7956 21 19.5585 20.6837 20.1211 20.1211C20.6837 19.5585 21 18.7956 21 18V10.9346ZM23 18C23 19.3261 22.4728 20.5975 21.5352 21.5352C20.5975 22.4728 19.3261 23 18 23H6C4.67392 23 3.40253 22.4728 2.46484 21.5352C1.52716 20.5975 1 19.3261 1 18V10.9336L1.00391 10.7354C1.04551 9.74493 1.39582 8.78987 2.00781 8.00586C2.66045 7.16991 3.57383 6.57626 4.60254 6.31836H4.60352C4.765 6.27794 4.91147 6.19174 5.02637 6.07129C5.14111 5.95096 5.21916 5.8007 5.25195 5.6377L5.69727 3.41211C5.83324 2.73183 6.20078 2.11946 6.7373 1.67969C7.27371 1.24006 7.94612 1.00087 8.63965 1.00098V1H15.3604V1.00098C16.0539 1.00087 16.7263 1.24006 17.2627 1.67969C17.7992 2.11946 18.1668 2.73183 18.3027 3.41211L18.748 5.6377H18.7471C18.7798 5.80077 18.8588 5.95091 18.9736 6.07129C19.0885 6.19174 19.235 6.27794 19.3965 6.31836H19.3975C20.4262 6.57626 21.3396 7.16991 21.9922 8.00586C22.6449 8.84207 22.9996 9.8728 23 10.9336V18Z" fill="currentColor"/>
<path d="M15 14C15 12.3431 13.6569 11 12 11C10.3431 11 9 12.3431 9 14C9 15.6569 10.3431 17 12 17C13.6569 17 15 15.6569 15 14ZM17 14C17 16.7614 14.7614 19 12 19C9.23858 19 7 16.7614 7 14C7 11.2386 9.23858 9 12 9C14.7614 9 17 11.2386 17 14Z" fill="currentColor"/>
<path d="M13 5C13.5523 5 14 5.44772 14 6C14 6.55228 13.5523 7 13 7H11C10.4477 7 10 6.55228 10 6C10 5.44772 10.4477 5 11 5H13Z" fill="currentColor"/>
</svg>
