<svg width="24" height="24" viewBox="0 0 24 24" fill="none" xmlns="http://www.w3.org/2000/svg">
<path d="M18 10.5C18 8.51088 17.2102 6.60281 15.8037 5.19629C14.3972 3.78977 12.4891 3 10.5 3C8.51088 3 6.60281 3.78977 5.19629 5.19629C3.78977 6.60281 3 8.51088 3 10.5C3 12.4891 3.78977 14.3972 5.19629 15.8037C6.60281 17.2102 8.51088 18 10.5 18C12.485 18 14.3883 17.2126 15.7939 15.8115L15.8184 15.7871C17.2151 14.3821 18 12.4818 18 10.5ZM20 10.5C20 12.6823 19.2473 14.7857 17.8887 16.4678L21.708 20.2939C22.0978 20.6848 22.0968 21.3179 21.7061 21.708C21.3152 22.0978 20.6821 22.0968 20.292 21.7061L16.4756 17.8828C14.7923 19.2454 12.6856 20 10.5 20C7.98044 20 5.56382 18.9994 3.78223 17.2178C2.00063 15.4362 1 13.0196 1 10.5C1 7.98044 2.00063 5.56382 3.78223 3.78223C5.56382 2.00063 7.98044 1 10.5 1C13.0196 1 15.4362 2.00063 17.2178 3.78223C18.9994 5.56382 20 7.98044 20 10.5Z" fill="currentColor"/>
</svg>
